<?xml version="1.0" encoding="UTF-8"?><svg xmlns="http://www.w3.org/2000/svg" width="433.54" height="274.09" viewBox="0 0 433.54 274.09"><g id="a"/><g id="b"><g id="c"><g><path d="M115.24,220.59c3.38-5.17,7.89-7.92,14.04-7.5,6.4,.44,9.85,4.49,12.02,10.46,.36-.76,.59-1.23,.8-1.71,3.08-7.15,10.61-10.61,17.81-8.05,4.66,1.66,7.2,5.37,8.51,9.87,.73,2.5,1.13,5.18,1.15,7.78,.11,13.24,.05,26.47,.05,39.71,0,1.76-.66,2.36-2.33,1.93-.44-.11-.83-.73-1.06-1.2-.17-.34-.04-.83-.04-1.26,0-12.77,.02-25.53-.01-38.3-.01-4.16-.78-8.12-3.26-11.63-3.99-5.66-12.9-5.81-17.07-.26-2.14,2.85-3.23,6.09-3.33,9.58-.15,5.22-.09,10.46-.1,15.68-.01,8.48-.01,16.96,0,25.44,0,1.18-.16,2.05-1.65,2.03-1.62-.02-1.96-.29-1.96-1.97,0-12.95,.04-25.91-.04-38.86-.01-2.28-.35-4.61-.89-6.83-.67-2.78-2.07-5.25-4.41-7.05-4.67-3.59-11.72-2.47-15.16,2.34-2.48,3.47-3.15,7.41-3.16,11.51-.03,12.95,0,25.91-.01,38.86,0,1.73-.3,1.98-1.92,2-1.5,.02-1.61-.86-1.61-2.03,.02-18.42,.01-36.84,.01-55.25,0-.19,.01-.38,0-.57-.08-1.23,.63-1.51,1.69-1.51,1.07,0,1.88,.16,1.84,1.51-.04,1.32-.01,2.64,0,3.96,0,.44,.05,.87,.08,1.31Z"/><path d="M66.18,136.94c0-13.04,0-26.09,0-39.13,0-2.08,.09-2.17,2.13-2.17,4.71,0,9.42,.14,14.12-.03,11.66-.41,17.23,7.49,18.49,16.14,.24,1.67,.37,3.37,.37,5.06,.03,13.51,.03,27.03,0,40.54,0,5.22-.96,10.2-4.13,14.54-3.32,4.55-7.91,6.5-13.4,6.56-5.32,.06-10.64,0-15.96,.04-1.48,.01-1.65-.8-1.65-2,.02-13.18,.01-26.37,.01-39.55Zm3.59,38.11c5.31,0,10.35,.16,15.38-.05,4.12-.17,7.26-2.32,9.49-5.8,2.27-3.54,2.98-7.49,2.99-11.59,.03-13.66,.06-27.32-.03-40.98-.01-2.38-.37-4.8-.93-7.11-1.64-6.76-6.38-10.45-13.31-10.54-3.91-.05-7.82-.01-11.73,0q-1.86,0-1.86,1.82c0,24.17,0,48.33,0,72.5,0,.55,0,1.1,0,1.77Z"/><path d="M169.64,172.2c-.23,.25-.46,.45-.63,.7-3.84,5.52-9.24,7.25-15.59,6.03-6.37-1.23-10.15-5.41-11.73-11.6-.39-1.53-.58-3.16-.58-4.75-.05-9.18-.05-18.36-.01-27.55,.02-4.1,1.14-7.84,3.64-11.19,5.49-7.35,19-7.92,24.3,.77,.16,.26,.39,.47,.9,.64,0-1.42,0-2.85,0-4.27,.01-1.57,.32-1.8,1.94-1.85,1.39-.04,1.75,.6,1.75,1.9-.03,19.45,.04,38.9-.07,58.34-.02,3.12-.52,6.3-1.27,9.33-1.89,7.7-7.88,12.57-15.87,13.24-1.08,.09-2.16,.16-3.24,.18-.99,.02-1.59-.4-1.61-1.5-.02-1.09,.38-1.67,1.52-1.75,1.55-.1,3.11-.17,4.63-.46,5.72-1.08,9.12-4.75,10.85-10.12,1.67-5.16,1.42-10.5,1.3-15.82,0-.07-.11-.13-.24-.28Zm-24.97-23.54c0,4.43-.03,8.86,.02,13.28,.01,1.36,.11,2.74,.4,4.06,1.97,9.01,12.32,13.02,19.74,7.59,3.65-2.67,5.08-6.57,5.1-10.98,.04-9.23,.02-18.46,0-27.7,0-1.08-.11-2.17-.33-3.22-2.08-9.93-11.93-12.27-18.58-8.46-4.53,2.6-6.27,6.83-6.33,11.85-.05,4.52-.01,9.04-.01,13.57Z"/><path d="M40.24,233.34H12.96c0,.65,0,1.24,0,1.83,0,11.96,0,23.93,0,35.89,0,1.81-.27,2.07-1.83,2.11-1.24,.03-1.79-.44-1.78-1.74,.04-4.62,.02-9.23,.02-13.85,0-21.76,0-43.52-.01-65.28,0-1.17,.12-2.04,1.63-2,1.7,.04,1.97,.22,1.97,1.94,0,12.01,.03,24.02-.03,36.03,0,1.45,.38,1.81,1.81,1.8,7.96-.07,15.92-.06,23.88,0,1.3,0,1.66-.36,1.65-1.66-.05-12.06-.03-24.12-.03-36.17,0-1.71,.27-1.91,1.98-1.93,1.25-.02,1.64,.55,1.63,1.72-.03,4.8-.01,9.61-.01,14.41,0,21.57,0,43.14,.01,64.72,0,1.19-.16,2.04-1.64,2.02-1.62-.02-1.97-.29-1.97-1.98,0-11.96,0-23.93,0-35.89v-1.96Z"/><path d="M212.9,266.34c-.12,.13-.26,.24-.34,.38-4.66,7.93-16.32,9.18-23.03,5.02-3.59-2.22-5.14-5.62-5.7-9.61-.53-3.73-.4-7.42,.6-11.07,1.78-6.53,7.51-11.18,14.45-11.53,4.28-.22,8.57-.23,12.85-.24,1.13,0,1.62-.24,1.53-1.47-.27-3.89-.09-7.85-.77-11.66-.87-4.82-3.56-8.57-8.73-9.64-7.7-1.59-14.51,3.12-15.19,9.92-.15,1.53-1.3,1.2-2.25,1.15-1.05-.05-1.46-.58-1.31-1.68,.95-7.03,7.01-12.55,14.3-12.96,2.94-.16,5.85,.01,8.55,1.35,5,2.47,7.34,6.85,8.37,12.06,.4,2.02,.58,4.11,.59,6.17,.05,12.86,.03,25.72,.02,38.58,0,1.79-.41,2.14-2.17,2.03-1.01-.06-1.43-.56-1.42-1.53,0-1.73,0-3.46,0-5.2l-.34-.09Zm.34-15.39c0-2.4-.02-4.8,.01-7.2,.01-.86-.19-1.31-1.17-1.29-4.14,.09-8.31-.13-12.42,.26-5.32,.51-9.44,3.09-11.42,8.33-1.22,3.24-1.42,6.61-.87,10.01,1.02,6.25,4.77,9.47,11.07,9.67,6.37,.2,13.82-3.64,14.81-11.56"/><path d="M270.93,171.67c-.2,.23-.43,.44-.59,.7-2.87,4.4-7.11,6.56-12.18,6.9-2.39,.16-4.94-.06-7.24-.71-5.67-1.59-8.52-5.7-9.17-11.44-.38-3.34-.24-6.65,.46-9.97,1.57-7.42,7.79-11.73,14.73-12.28,4.12-.33,8.28-.2,12.42-.28,.56-.01,1.12,0,1.59,0,0-3.78,.19-7.45-.08-11.08-.14-1.91-.87-3.86-1.69-5.63-2.07-4.45-5.75-6.33-10.59-6.32-5.76,.02-11.46,4.07-12.07,10.27-.16,1.57-1.36,1.11-2.28,1.09-.99-.03-1.37-.54-1.25-1.58,.74-6.99,6.93-12.59,14.49-13.06,8.86-.55,14.91,4.2,16.68,13.19,.38,1.93,.6,3.92,.61,5.88,.05,13.05,.03,26.1,.03,39.14,0,1.74-.34,2.03-2.06,1.98-1.1-.03-1.5-.56-1.48-1.59,.02-1.72,0-3.44,0-5.17l-.32-.06Zm.07-15.64h.24c0-2.36-.02-4.71,.01-7.06,.01-.86-.31-1.17-1.16-1.16-4.1,.07-8.2-.08-12.28,.21-3.82,.27-7.21,1.78-9.65,4.92-3.04,3.92-3.5,8.45-2.85,13.14,.9,6.43,4.51,9.66,10.93,9.96,6.48,.3,13.65-3.58,14.69-11.41,.38-2.82,.06-5.73,.06-8.6Z"/><path d="M7.04,42.38c0-8.06-.03-16.11,.01-24.17,.03-6.25,2.21-11.47,7.43-15.23C20.51-1.35,33.87-1.72,39.9,7.03c2.25,3.27,3.13,6.9,3.35,10.76,.04,.8,.01,1.6,0,2.4,0,1.8-.93,2.59-2.68,2.09-.43-.12-.89-.89-.95-1.41-.27-2.28-.14-4.64-.61-6.87-1.48-6.91-7.37-10.96-14.6-10.67-5.06,.2-9.09,2.2-11.75,6.62-1.5,2.49-2.08,5.26-2.08,8.11-.03,16.16-.06,32.32,.01,48.48,.02,5.1,1.69,9.62,6.18,12.49,4.91,3.13,10.17,3.24,15.33,.68,5.18-2.57,7.13-7.23,7.47-12.74,.06-1.03,.03-2.07,0-3.11-.02-.85,.28-1.42,1.2-1.33,.95,.09,2.34-.36,2.45,1.19,.88,12.38-6.32,21.22-18.54,20.96-10.29-.22-17.31-7.13-17.61-17.45-.12-4.14-.03-8.29-.04-12.44,0-4.15,0-8.29,0-12.44Z"/><path d="M361.24,244.29c0,5.5-.41,10.75,.11,15.92,.59,5.92,5.48,10.05,10.89,10.48,7.34,.59,12.07-3.75,13.6-9.21,.24-.85,.46-1.6,1.55-1.72,1.89-.2,2.45,.38,2.03,2.24-1.82,8.01-9.29,13.02-17.8,11.94-8.48-1.08-14.14-7.47-14.24-16.37-.1-9.37-.15-18.75,.02-28.12,.12-6.65,2.85-12.16,9.09-14.96,10.7-4.81,23.05,1.2,23.55,14.84,.16,4.33,.03,8.67,.03,13,0,1.69-.25,1.95-1.97,1.95-8.43,0-16.86,0-25.29,0h-1.55Zm12.46-3.09c3.81,0,7.63-.01,11.44,0,.8,0,1.35-.07,1.33-1.11-.06-3.91,.1-7.82-.1-11.72-.2-4.04-1.86-7.49-5.23-9.88-6.5-4.61-18.19-2.55-19.82,8.35-.66,4.43-.28,9.01-.36,13.53-.02,.97,.71,.82,1.3,.82,3.81,0,7.63,0,11.44,0Z"/><path d="M59.2,54.94c.16,5.53-.08,10.89,.57,16.13,.78,6.29,5.58,10.05,12.06,10.34,5.75,.25,10.71-3.41,12.39-9.18,.26-.9,.46-1.71,1.64-1.79,1.93-.13,2.38,.38,1.93,2.29-1.77,7.43-7.94,12.1-15.87,11.98-9.3-.13-15.99-6.76-16.13-16.26-.14-9.51-.12-19.03,0-28.55,.09-7.96,5.29-14.47,12.47-15.96,10.92-2.27,20.02,5.05,20.2,16.27,.07,4.29,.02,8.57,0,12.86,0,1.6-.27,1.87-1.91,1.87-8.43,0-16.86,0-25.3,0-.56,0-1.11,0-2.05,0Zm12.92-3.1c3.81,0,7.63-.01,11.44,0,.8,0,1.33-.06,1.32-1.11-.06-3.81,.08-7.63-.07-11.44-.33-8.45-7.58-13.94-15.8-12.08-5.47,1.24-9.37,6-9.6,11.96-.14,3.76,0,7.53-.09,11.3-.03,1.2,.45,1.4,1.49,1.38,3.77-.05,7.53-.02,11.3-.02Z"/><path d="M216.32,54.94c0,2.25-.05,4.27,.01,6.28,.11,3.43-.08,6.92,.53,10.26,1.12,6.14,5.65,9.65,11.98,9.92,5.71,.25,10.56-3.34,12.36-9.05,.22-.68,.69-1.59,1.27-1.8,1.94-.69,2.77,.15,2.33,2.17-1.55,7.16-7.77,11.94-15.59,11.99-9.13,.05-16.13-6.43-16.32-15.56-.21-9.98-.17-19.98,0-29.96,.13-7.44,5.16-13.66,12.12-15.14,12.1-2.58,20.1,5.64,20.39,15.61,.13,4.47,.03,8.95,.03,13.43,0,1.65-.21,1.86-1.89,1.86-8.43,0-16.86,0-25.3,0h-1.92Zm12.71-3.1c3.86,0,7.73-.03,11.59,.02,.97,.01,1.33-.29,1.32-1.29-.05-3.49,.07-6.98-.04-10.46-.15-4.49-1.64-8.43-5.5-11.07-6.71-4.59-18.5-2.22-19.82,9.21-.46,4-.15,8.09-.28,12.14-.04,1.24,.45,1.49,1.57,1.47,3.72-.06,7.44-.02,11.16-.02Z"/><path d="M236.34,220.97c1.54-1.75,2.71-3.52,4.28-4.79,8.38-6.81,20.56-2.71,23.13,7.77,.51,2.08,.82,4.27,.83,6.41,.07,13.61,.04,27.22,.04,40.83,0,1.7-.31,1.98-1.94,1.97-1.12,0-1.64-.46-1.62-1.61,.03-2.31,0-4.61,0-6.92,0-11.07,.01-22.13,0-33.2,0-3.82-.49-7.54-2.86-10.72-.69-.92-1.54-1.8-2.5-2.44-6.98-4.66-16.28-.99-18.45,7.34-.56,2.16-.86,4.45-.87,6.69-.08,12.95-.04,25.9-.04,38.85,0,1.75-.36,2.06-2.04,2.01-1.07-.03-1.55-.51-1.53-1.56,.02-.99,0-1.98,0-2.97,0-17.57,0-35.13,0-52.7,0-1.08-.05-2.12,1.52-2.13,1.72-.01,2.04,.24,2.05,2,0,1.67,0,3.34,0,5.16Z"/><path d="M107.47,31.59c.24-.37,.49-.73,.72-1.1,3.03-4.84,7.49-6.91,13.1-6.78,8.54,.2,12.91,6.42,13.83,13.71,.19,1.54,.28,3.1,.28,4.65,.02,13.28,.01,26.56,.01,39.84,0,1.66-.26,1.91-1.86,1.89-1.49-.02-1.72-.29-1.72-2.05,0-12.95,.05-25.9-.04-38.85-.02-2.61-.27-5.3-.96-7.8-1.55-5.65-6.51-8.56-12.32-8.03-6.12,.56-10.1,5.35-11.03,11.58-.22,1.48-.32,3-.32,4.5-.02,12.9-.02,25.81,0,38.71,0,1.23-.24,2-1.7,1.95-1.61-.05-1.91-.26-1.91-1.87,0-5.09,0-10.17,0-15.26,0-13.37,0-26.75,0-40.12,0-1.79,.35-2.12,2-2.09,1.11,.02,1.64,.48,1.61,1.63-.04,1.8-.01,3.61-.01,5.42l.33,.08Z"/><path d="M90.13,266.94c-.19,.23-.41,.44-.56,.7-2.89,4.83-7.39,6.48-12.72,6.27-1.81-.07-3.69-.34-5.39-.94-5.73-2.03-8.2-6.57-8.94-12.28-.19-1.49-.26-3-.26-4.51-.02-13.47-.01-26.95,0-40.42,0-1.69,.32-1.93,1.98-1.95,1.5-.02,1.63,.87,1.63,2.03-.02,13.28-.04,26.57,.02,39.85,.01,2.19,.23,4.44,.74,6.56,1.37,5.69,6.27,8.93,12.22,8.31,5.96-.62,9.74-4.12,11-10.38,.37-1.83,.57-3.73,.58-5.6,.05-12.95,.02-25.91,.03-38.86,0-1.68,.25-1.88,1.85-1.91,1.2-.02,1.7,.44,1.69,1.67-.04,3.63-.01,7.25-.01,10.88,0,14.93,0,29.87,0,44.8,0,1.75-.37,2.06-2.05,2-1.07-.04-1.52-.51-1.49-1.58,.04-1.52,.01-3.05,.01-4.57l-.32-.07Z"/><path d="M417.8,213.36c8.98-.05,15.31,6.06,15.31,14.74,0,1.07-.14,1.82-1.48,1.86-1.34,.04-1.83-.46-1.86-1.81-.09-4.62-2.05-8.24-6.27-10.26-4.32-2.07-8.7-1.92-12.79,.72-5.88,3.82-6.42,13.97-.84,18.32,2.26,1.77,5.01,2.94,7.6,4.25,2.68,1.36,5.49,2.48,8.16,3.85,10.31,5.31,9.62,19.23,3.2,24.81-2.97,2.58-6.5,3.67-10.4,3.72-5.09,.07-9.57-1.3-13-5.29-2.32-2.7-3.26-5.87-3.21-9.4,.02-1.2,.73-1.37,1.67-1.38,.98,0,1.79,.12,1.77,1.42-.11,7.08,5.4,11.95,12.92,11.53,6-.34,9.68-3.3,10.96-8.6,1.42-5.85-.64-10.81-5.89-13.81-2.08-1.19-4.3-2.12-6.47-3.14-2-.94-4.01-1.85-6.02-2.79-7.97-3.71-10.05-10.88-8.02-18.66,1.48-5.64,6.68-9.66,12.52-9.97,.71-.04,1.41-.09,2.11-.14Z"/><path d="M306.98,239.51c0-7.02-.03-14.04,.03-21.05,.01-1.28-.39-1.65-1.61-1.55-1.17,.1-2.35,.01-3.53,.02-1.02,0-1.4-.5-1.41-1.5-.01-1.05,.36-1.61,1.46-1.6,1.27,.01,2.55-.06,3.81,.02,1.02,.06,1.28-.34,1.27-1.3-.04-3.91-.02-7.82-.02-11.73,0-1.64,.29-1.92,1.85-1.91,1.54,0,1.82,.29,1.82,1.96,0,3.86,.05,7.72-.03,11.59-.02,1.16,.37,1.43,1.45,1.41,2.82-.07,5.65,0,8.48-.03,1.1-.01,1.8,.24,1.8,1.55,0,1.3-.66,1.58-1.78,1.57-2.87-.03-5.75,.02-8.62-.03-.93-.01-1.33,.2-1.33,1.24,.03,13.85,0,27.69,.06,41.54,0,1.54,.28,3.1,.65,4.6,.78,3.17,3.06,4.97,6.63,5.4,.84,.1,1.69,.12,2.54,.09,1.14-.03,1.74,.35,1.76,1.62,.01,1.29-.52,1.9-1.76,1.74-2.45-.33-5-.42-7.32-1.19-4.09-1.37-5.53-4.91-5.88-8.86-.29-3.27-.29-6.58-.32-9.87-.05-4.57-.01-9.14-.01-13.71Z"/><path d="M219.92,119.15c3.44,0,6.68,.02,9.92,0,1.11,0,1.8,.28,1.77,1.58-.02,1.08-.44,1.54-1.52,1.53-2.97-.03-5.93,.03-8.9-.03-.99-.02-1.29,.3-1.29,1.29,.03,13.8,.01,27.59,.05,41.39,0,1.26,.19,2.54,.44,3.78,.85,4.19,3.3,6.23,7.56,6.41,.56,.02,1.13,.05,1.69,.02,1.16-.05,1.92,.26,1.88,1.64-.05,1.41-.33,1.85-1.92,1.69-2.41-.25-4.91-.41-7.18-1.17-3.96-1.33-5.35-4.75-5.86-8.59-.21-1.58-.32-3.19-.32-4.78-.02-13.33-.03-26.65,.02-39.98,0-1.4-.43-1.83-1.76-1.7-1.03,.1-2.07,0-3.11,.03-1.07,.04-1.68-.28-1.69-1.5-.02-1.29,.62-1.64,1.75-1.61,1.18,.03,2.36-.05,3.53,.02,1.02,.06,1.28-.34,1.27-1.31-.04-3.86-.02-7.72-.02-11.58,0-1.78,.25-2.04,1.86-2.03,1.56,.01,1.81,.3,1.82,2.11,0,4.18,0,8.37,0,12.8Z"/><path d="M154,24.48c0-1.7,0-3.15,0-4.6,0-2.83,.05-5.65-.02-8.48-.04-1.35,.47-1.88,1.81-1.83,1.6,.05,1.89,.28,1.89,1.9,.01,3.77,0,7.54,0,11.3,0,.51,0,1.01,0,1.7,2.79,0,5.41,0,8.03,0,.71,0,1.41,.01,2.12,0,1.15-.02,1.57,.54,1.55,1.67-.02,1.15-.62,1.43-1.62,1.43-2.87-.02-5.75,.03-8.62-.03-1.08-.02-1.49,.24-1.48,1.41,.04,13.61,0,27.22,.05,40.84,0,1.54,.21,3.1,.53,4.61,.79,3.71,3.24,5.75,7.03,5.99,.8,.05,1.6,.07,2.4,.05,1.23-.02,1.64,.61,1.63,1.77-.02,1.13-.5,1.61-1.63,1.59-2.74-.05-5.44-.13-8-1.36-2.52-1.21-4.15-3.18-4.73-5.81-.53-2.42-.88-4.92-.89-7.4-.08-13.23-.04-26.47-.04-39.71q0-1.97-2.03-1.97c-1.04,0-2.07-.02-3.11,0-1.06,.02-1.37-.55-1.38-1.51,0-.96,.32-1.56,1.35-1.57,1.64-.01,3.28,0,5.17,0Z"/><path d="M12.67,146.38c-1.28,1.4-2.56,2.79-3.71,4.04,.43,3.4,.97,6.86,1.24,10.35,.11,1.41-.25,2.91-.66,4.29-.45,1.53-1.31,2.84-3.15,3.02-1.97,.19-3.54-.67-4.28-2.37-.83-1.91-1.47-3.98-1.75-6.04-.76-5.6-.19-11.2,.56-16.75,.87-6.43,1.98-12.83,3.1-19.22,.22-1.26,.81-2.51,1.49-3.61,.88-1.42,2.56-1.89,3.95-1.4,1.29,.45,2.19,1.69,1.89,3.41-.42,2.43-.99,4.88-1.87,7.17-.89,2.31-2.11,4.53-3.42,6.63-1.72,2.76-3,5.56-3.08,8.9-.12,4.89-.53,9.77-.63,14.66-.03,1.56,.44,3.16,.84,4.7,.19,.74,.65,1.48,1.16,2.06,1.18,1.35,2.9,1.07,3.4-.64,.42-1.42,.68-2.97,.6-4.44-.18-3.09-.63-6.16-.97-9.24-.09-.86-.51-1.26-1.42-1.42-.64-.11-1.31-.53-1.78-1-.68-.69-.7-1.71,.09-2.22,.51-.33,1.57-.32,2.1,0,.71,.43,1.16,1.31,1.89,2.21,.57-.49,1.38-.9,1.76-1.56,1.1-1.9,2-3.91,3.03-5.84,.94-1.77,1.94-3.51,2.96-5.23,.2-.34,.63-.56,.95-.83l.36,.31c-.22,.34-.43,.7-.67,1.02-2.31,3.14-3,6.56-1.65,10.26,.88,2.4,2.95,3.66,5.39,3.48,1.91-.13,3.75-1.81,4.29-3.95-.74-.13-1.49-.2-2.21-.39-3.95-1.06-6.22-5.42-4.83-9.27,.55-1.52,1.55-2.62,3.22-2.81,1.81-.21,3.37,.31,4.38,1.94,1.59,2.56,1.46,5.38,1.24,8.22-.03,.32-.07,.63-.12,1.03,2.19-.41,3.47-1.8,4.33-3.6,.73-1.55,1.4-3.05,.53-4.93-.46-.99-.15-2.38-.04-3.57,.03-.33,.6-.84,.93-.85,.33,0,.91,.48,.96,.81,.24,1.64,.34,3.31,.5,5.17,1.22,.64,3.17,.2,4.15-1.18,.16-.23,.27-.54,.48-.69,.26-.19,.61-.25,.93-.37-.02,.33,.04,.69-.06,.99-.7,1.98-1.68,3.89-2.09,5.92-.29,1.45-.06,3.11,.36,4.56,.63,2.18,3.07,2.84,4.72,1.26,1.09-1.04,1.88-2.45,2.61-3.79,.68-1.23,1.08-2.6,1.66-3.89,.14-.32,.53-.52,1.01-.61-.91,3.34-1.94,6.57-4.14,9.21-1.17,1.4-2.78,1.95-4.58,1.57-1.79-.38-3.03-1.63-3.22-3.35-.22-1.96,0-3.99,.18-5.97,.08-.86,.52-1.68,.78-2.5h-3.53c-.14,.37-.32,.84-.51,1.31-1.08,2.64-2.7,4.71-5.63,5.5-.38,.1-.67,.65-.95,1.03-1.03,1.36-1.79,3.09-3.11,4.04-3.3,2.38-7.74,.79-9.28-3.08-.33-.82-.49-1.71-.7-2.48Zm12.95-3.23l.31-.07c-.44-1.85-.73-3.75-1.36-5.53-.53-1.49-1.92-2.08-3.41-1.87-1.36,.19-2.39,1.19-2.73,2.66-.71,3.03,.98,6.2,3.88,7.28,2.57,.95,3.11,.62,3.29-2.05,0-.14,.02-.28,.03-.42Zm-21.92-6.22l.56,.11c2.23-3.95,4.65-7.83,5.72-12.31,.29-1.2,.31-2.52,.17-3.75-.06-.51-.82-1.2-1.36-1.3-.55-.11-1.31,.29-1.81,.69-.4,.32-.67,.94-.76,1.47-.87,5.03-1.69,10.07-2.52,15.1Zm2.64,12.89l.47-.51-1.56-1.48c-.13,.22-.42,.58-.37,.63,.45,.48,.96,.91,1.46,1.36Z"/><path d="M293.64,137.22c0,13.09,0,26.19,.01,39.28,0,1.2-.21,2.02-1.68,1.99-1.67-.04-1.93-.25-1.93-2.14,0-20.86,0-41.73,0-62.59,0-5.42,.02-10.83-.02-16.25,0-1.27,.32-1.96,1.74-1.9,1.63,.07,1.87,.23,1.87,1.9,0,13.23,0,26.47,0,39.7Z"/><path d="M186.01,33.51c.78-1.38,1.47-2.82,2.36-4.13,3.2-4.73,8.8-6.57,13.89-4.66,1.77,.66,2.19,2.61,.76,3.89-.25,.23-.89,.24-1.26,.11-5.87-2.17-10.55,.6-13.18,5.13-2.09,3.61-2.87,7.53-2.87,11.64,0,12.11,0,24.21,0,36.32,0,1.73-.24,1.93-1.77,2-1.34,.06-1.84-.48-1.84-1.82,.02-18.56,.02-37.12,0-55.68,0-1.34,.51-1.86,1.83-1.86,1.35,0,1.84,.56,1.8,1.89-.06,2.38-.02,4.76-.02,7.14l.3,.03Z"/><path d="M120.23,148.79c0-9.18,0-18.36,0-27.54,0-1.86,.45-2.26,2.25-2.1,.92,.08,1.38,.52,1.34,1.45,0,.19,0,.38,0,.56,0,18.46,0,36.91,0,55.37,0,1.71-.3,1.94-1.95,1.97-1.49,.03-1.65-.84-1.65-2.02,.02-9.23,0-18.46,.01-27.68Z"/><path d="M192.07,148.79c0-9.23,0-18.45,0-27.68,0-1.69,.28-1.97,1.82-1.96,1.5,0,1.74,.28,1.74,2.02,0,17.18,0,34.36,0,51.55,0,1.46-.02,2.92,0,4.38,.01,1.17-.7,1.39-1.66,1.39-.95,0-1.86-.02-1.89-1.31-.02-.89-.01-1.79-.01-2.68,0-8.57,0-17.14,0-25.7Z"/><path d="M286.38,243.38c0,9.27,0,18.54,0,27.82,0,1.73-.47,2.12-2.22,1.96-.84-.08-1.31-.46-1.31-1.32,0-.28,0-.56,0-.85,0-18.36,0-36.71,0-55.07,0-1.83,.19-2.06,1.67-2.09,1.59-.03,1.87,.24,1.87,1.88,0,9.23,0,18.45,0,27.68Z"/><path d="M340.1,243.43c0,9.22,0,18.45,0,27.67,0,1.83-.48,2.24-2.26,2.05-.86-.09-1.28-.51-1.26-1.37,0-.24,0-.47,0-.71,0-18.4,0-36.8,0-55.21,0-1.81,.2-1.99,1.7-2.06,1.31-.06,1.85,.42,1.84,1.8-.04,9.27-.02,18.54-.02,27.82Z"/><path d="M338.28,190.57c2.91-.02,5.02,2.04,5.04,4.92,.02,2.9-2.02,5.02-4.9,5.07-3,.05-5.14-1.99-5.17-4.93-.02-3,2.01-5.04,5.03-5.06Z"/><path d="M126.99,100.89c0,2.92-2.04,4.98-4.95,4.99-3.01,.01-5.09-2.03-5.09-5,0-2.97,2.08-5,5.1-4.98,2.91,.02,4.94,2.07,4.94,5Z"/><path d="M188.79,100.81c.02-2.95,2.13-4.96,5.17-4.91,2.9,.05,4.9,2.13,4.87,5.07-.03,2.9-2.12,4.94-5.03,4.92-3.01-.02-5.03-2.07-5.01-5.08Z"/><path d="M289.58,195.58c-.01,2.9-2.09,4.98-4.98,4.98-3,0-5.07-2.05-5.06-5.03,0-2.97,2.09-4.99,5.12-4.96,2.91,.03,4.94,2.1,4.93,5.02Z"/></g></g></g></svg>